<svg width="19" height="13" viewBox="0 0 19 13" fill="none" xmlns="http://www.w3.org/2000/svg">
<path d="M2.65836 0.0553387L7.89695 0.177166L5.80449 4.12959L8.18385 4.18492L7.99785 12.1828L1.32322e-05 11.9968L0.16834 4.75872L2.65836 0.0553387ZM4.61132 2.1013L3.85153 2.08363L2.15664 5.28509L2.04597 10.0438L6.04489 10.1368L6.13789 6.13788L2.51887 6.05372L4.61132 2.1013ZM12.6557 0.287834L17.8942 0.409662L15.8018 4.36208L18.1811 4.41742L17.9951 12.4153L9.99731 12.2293L10.1656 4.99121L12.6557 0.287834ZM14.6086 2.33379L13.8488 2.31612L12.1539 5.51758L12.0433 10.2763L16.0422 10.3693L16.1352 6.37038L12.5162 6.28621L14.6086 2.33379Z" fill="white"/>
</svg>
