<svg width="28" height="28" viewBox="0 0 28 28" fill="none" xmlns="http://www.w3.org/2000/svg">
<path fill-rule="evenodd" clip-rule="evenodd" d="M5.68896 0H0V28H5.68896H15.5153C36.7196 22.2622 26.8933 1.37699 15.5153 0H8.79203C8.79203 4.91395 12.1051 25.3908 13.2746 23.2376C13.3982 23.421 13.5275 23.5897 13.6635 23.7435C11.5811 24.132 8.9511 24.078 5.68896 23.4098V0ZM13.6635 23.7435C14.494 24.6833 15.5671 25.0665 17.0291 24.8555C20.5087 24.3536 25.0683 19.286 24.0205 13.5651C22.9726 7.84438 17.3504 2.73382 13.871 3.23588C10.3914 3.73795 10.1779 11.0528 11.2258 16.7736C11.7613 19.697 12.3563 21.8743 13.2746 23.2376C13.5252 22.776 13.6774 21.275 13.6774 18.3584C13.6774 9.19357 12.6519 6.38319 11.7384 5.69775C19.6915 5.1517 25.4551 21.5435 13.6635 23.7435Z" fill="#F06540"/>
</svg>
